Coordinates
version=1
nRows=11
nColumns=63
inDegrees=yes

Units are S.I. units (second, meters, Newtons, ...)
If the header above contains a line with 'inDegrees', this indicates whether rotational values are in degrees (yes) or radians (no).

endheader
time	pelvis_tilt	pelvis_list	pelvis_rotation	pelvis_tx	pelvis_ty	pelvis_tz	hip_flexion_r	hip_adduction_r	hip_rotation_r	knee_angle_r	knee_angle_r_beta	ankle_angle_r	subtalar_angle_r	mtp_angle_r	hip_flexion_l	hip_adduction_l	hip_rotation_l	knee_angle_l	knee_angle_l_beta	ankle_angle_l	subtalar_angle_l	mtp_angle_l	L5_S1_Flex_Ext	L5_S1_Lat_Bending	L5_S1_axial_rotation	L4_L5_Flex_Ext	L4_L5_Lat_Bending	L4_L5_axial_rotation	L3_L4_Flex_Ext	L3_L4_Lat_Bending	L3_L4_axial_rotation	L2_L3_Flex_Ext	L2_L3_Lat_Bending	L2_L3_axial_rotation	L1_L2_Flex_Ext	L1_L2_Lat_Bending	L1_L2_axial_rotation	L1_T12_Flex_Ext	L1_T12_Lat_Bending	L1_T12_axial_rotation	Abs_r3	Abs_r2	Abs_r1	Abs_t1	Abs_t2	neck_flexion	neck_bending	neck_rotation	arm_flex_r	arm_add_r	arm_rot_r	elbow_flex_r	pro_sup_r	wrist_flex_r	wrist_dev_r	arm_flex_l	arm_add_l	arm_rot_l	elbow_flex_l	pro_sup_l	wrist_flex_l	wrist_dev_l
1.118644	-0.956553	-5.332245	96.263294	0.217727	0.662678	0.669865	5.839174	-1.331357	-19.579046	11.191146	0.195322	15.269898	10.397920	0.000000	7.718191	1.931997	2.622669	9.117127	0.159124	14.057080	-7.983048	0.000000	0.156750	-0.025949	-1.377339	0.291100	-0.034513	-1.463422	0.257525	-0.063093	-1.463422	0.179150	-0.063093	-1.205171	0.145558	-0.052916	-1.119088	0.089567	-0.040196	-1.033004	1.119649	-0.293545	-7.660345	0.000000	0.000000	2.252784	0.756378	3.706335	2.159504	-9.814398	24.991949	75.395965	51.712927	-1.642736	23.964037	2.147297	-13.495516	19.825872	75.335959	75.839124	-2.674293	7.210773
1.135593	-0.854908	-5.274508	96.238473	0.217772	0.662682	0.669775	5.795322	-1.198662	-19.409597	11.216617	0.195767	15.186549	10.094070	0.000000	7.683736	1.803092	2.532101	9.155051	0.159786	14.121822	-7.849456	0.000000	0.147209	-0.013370	-1.442629	0.273382	-0.017782	-1.532793	0.241850	-0.032507	-1.532793	0.168245	-0.032507	-1.262300	0.136698	-0.027264	-1.172136	0.084115	-0.020710	-1.081972	1.051499	-0.151242	-8.023468	0.000000	0.000000	2.348966	0.823709	4.210382	2.681956	-9.737910	25.472115	74.517238	53.940816	-1.974948	23.301008	2.047214	-12.987746	18.964057	74.595241	76.232623	-2.539285	7.402879
1.152542	-0.762128	-5.266948	96.209223	0.217871	0.662568	0.669905	5.838682	-1.082691	-19.181277	11.289848	0.197045	15.099947	9.662378	0.000000	7.741613	1.686060	2.431067	9.247728	0.161403	14.177134	-7.692803	0.000000	0.139085	-0.003311	-1.483726	0.258295	-0.004404	-1.576459	0.228503	-0.008051	-1.576459	0.158961	-0.008051	-1.298260	0.129155	-0.006753	-1.205527	0.079473	-0.005129	-1.112794	0.993472	-0.037460	-8.252038	0.000000	0.000000	2.537212	0.883953	4.588596	3.189700	-9.661269	25.843093	73.659490	56.505551	-2.352738	22.566209	2.056267	-12.482259	18.264890	73.777645	76.543712	-2.430130	7.395993
1.169492	-0.683216	-5.286190	96.151463	0.218069	0.662355	0.670226	5.947562	-0.974528	-18.793840	11.409916	0.199141	15.016304	9.010898	0.000000	7.856212	1.579318	2.308616	9.380804	0.163726	14.224522	-7.518823	0.000000	0.128746	0.003977	-1.496199	0.239094	0.005289	-1.589712	0.211516	0.009669	-1.589712	0.147144	0.009669	-1.309174	0.119553	0.008109	-1.215662	0.073565	0.006160	-1.122150	0.919618	0.044985	-8.321412	0.000000	0.000000	2.839985	0.962580	4.864173	3.641841	-9.588368	26.100739	72.873831	59.182089	-2.775042	21.769101	2.166788	-12.007265	17.740704	72.884780	76.497666	-2.254581	7.179242
1.186441	-0.610352	-5.340055	96.107357	0.218279	0.662058	0.670721	6.112091	-0.889592	-18.469950	11.557780	0.201721	14.951099	8.412502	0.000000	8.033764	1.484912	2.206591	9.545977	0.166609	14.254025	-7.347349	0.000000	0.119673	0.009426	-1.492806	0.222245	0.012537	-1.586106	0.196611	0.022918	-1.586106	0.136775	0.022918	-1.306205	0.111129	0.019222	-1.212905	0.068381	0.014601	-1.119605	0.854814	0.106629	-8.302540	0.000000	0.000000	3.199415	1.016967	5.025695	4.050762	-9.519474	26.260822	72.117893	61.906912	-3.123670	20.981012	2.328978	-11.582789	17.355599	71.974485	76.542655	-2.148234	6.873707
1.203390	-0.540729	-5.424383	96.067716	0.218502	0.661698	0.671354	6.322305	-0.820069	-18.189440	11.717183	0.204503	14.897185	7.872224	0.000000	8.257923	1.398669	2.122051	9.722412	0.169688	14.256834	-7.188778	0.000000	0.112491	0.013803	-1.473494	0.208907	0.018358	-1.565588	0.184811	0.033561	-1.565588	0.128566	0.033561	-1.289307	0.104459	0.028147	-1.197214	0.064277	0.021381	-1.105121	0.803512	0.156144	-8.195133	0.000000	0.000000	3.597091	1.030462	5.071889	4.389618	-9.444021	26.301426	71.428853	64.710811	-3.477200	20.150830	2.527073	-11.230464	17.116269	71.075622	76.709888	-2.126503	6.544630
1.220339	-0.481127	-5.543853	96.026733	0.218719	0.661272	0.672142	6.593225	-0.772568	-17.906000	11.898999	0.207677	14.855641	7.338030	0.000000	8.542781	1.328668	2.026607	9.928842	0.173291	14.247989	-7.032386	0.000000	0.108199	0.016331	-1.435863	0.200936	0.021721	-1.525605	0.177760	0.039708	-1.525605	0.123661	0.039708	-1.256380	0.100474	0.033303	-1.166639	0.061825	0.025297	-1.076897	0.772855	0.184744	-7.985840	0.000000	0.000000	4.032254	1.009951	4.953406	4.656555	-9.375191	26.207957	70.832766	67.457665	-3.806767	19.324183	2.787649	-10.991432	17.099021	70.208441	76.908653	-2.214799	6.237624
1.237288	-0.419632	-5.672721	95.986615	0.218962	0.660864	0.672909	6.859278	-0.724999	-17.690772	12.042160	0.210175	14.818905	6.935154	0.000000	8.822422	1.257235	1.944195	10.104032	0.176349	14.215121	-6.899722	0.000000	0.107622	0.018285	-1.395345	0.199864	0.024319	-1.482554	0.176811	0.044459	-1.482554	0.123001	0.044459	-1.220927	0.099937	0.037287	-1.133718	0.061495	0.028324	-1.046509	0.768730	0.206847	-7.760490	0.000000	0.000000	4.413212	0.954974	4.732957	4.872821	-9.280806	26.047025	70.285051	70.215493	-4.180774	18.427485	2.965789	-10.823699	17.091506	69.453138	77.279772	-2.469123	6.094994
1.254237	-0.364545	-5.815832	95.955000	0.219206	0.660495	0.673764	7.145748	-0.695268	-17.563572	12.177131	0.212531	14.784522	6.664453	0.000000	9.121370	1.196676	1.861654	10.273227	0.179302	14.146860	-6.802877	0.000000	0.109803	0.019313	-1.353159	0.203915	0.025686	-1.437731	0.180395	0.046957	-1.437731	0.125494	0.046957	-1.184014	0.101963	0.039382	-1.099441	0.062741	0.029915	-1.014869	0.784312	0.218468	-7.525863	0.000000	0.000000	4.767871	0.884135	4.447767	5.063632	-9.181155	25.824940	69.801686	72.905416	-4.580771	17.537541	3.101269	-10.755524	17.138340	68.781464	77.831744	-2.788915	6.043100
1.271186	-0.308114	-5.949881	95.912840	0.219455	0.660187	0.674580	7.413747	-0.664950	-17.482085	12.280766	0.214340	14.762079	6.520059	0.000000	9.394430	1.134401	1.780956	10.413911	0.181757	14.083684	-6.732483	0.000000	0.113479	0.020466	-1.303805	0.210741	0.027220	-1.385293	0.186434	0.049762	-1.385293	0.129695	0.049762	-1.140829	0.105376	0.041735	-1.059342	0.064842	0.031702	-0.977854	0.810567	0.231518	-7.251372	0.000000	0.000000	5.059814	0.808623	4.060082	5.185749	-9.083138	25.490950	69.412771	75.385692	-4.956426	16.720416	3.165074	-10.762643	17.231013	68.206722	78.373856	-3.182408	6.027456
1.288136	-0.254278	-6.084805	95.890937	0.219690	0.659932	0.675356	7.667975	-0.641247	-17.481409	12.348609	0.215524	14.768775	6.517830	0.000000	9.656796	1.079719	1.738762	10.533402	0.183843	14.020590	-6.720080	0.000000	0.120164	0.020654	-1.259267	0.223156	0.027470	-1.337971	0.197417	0.050219	-1.337971	0.137335	0.050219	-1.101859	0.111584	0.042118	-1.023155	0.068662	0.031994	-0.944450	0.858318	0.233647	-7.003666	0.000000	0.000000	5.302999	0.754469	3.615320	5.247328	-8.992797	25.106793	69.121566	77.841284	-5.420144	15.970581	3.113948	-10.824342	17.272164	67.788468	79.120772	-3.663983	6.233538
